<?xml version="1.0" encoding="utf-8"?>
<!-- Generator: Adobe Illustrator 27.4.1, SVG Export Plug-In . SVG Version: 6.00 Build 0)  -->
<svg version="1.1" id="Layer_1" xmlns="http://www.w3.org/2000/svg" xmlns:xlink="http://www.w3.org/1999/xlink" x="0px" y="0px"
	 viewBox="0 0 723.3 227.3" style="enable-background:new 0 0 723.3 227.3;" xml:space="preserve">
<style type="text/css">
	.st0{fill:#9D62F5;}
</style>
<path class="st0" d="M272,24.4c7.5,17,12.2,43.5,0.8,81.1c-3.4,11.2,5,22.6,16.8,22.6h2.6c7.7,0,14.5-5,16.7-12.3
	c6.7-21.7,16.8-68.1-3.7-106.5c-3-5.7-9-9.2-15.5-9.2h-1.7C275.6,0,267,12.9,272,24.4L272,24.4z"/>
<path class="st0" d="M213,24.4c7.5,17,12.2,43.5,0.8,81.1c-3.4,11.2,5,22.6,16.8,22.6h2.6c7.7,0,14.5-5,16.7-12.3
	c6.7-21.7,16.8-68.1-3.7-106.5c-3-5.7-9-9.2-15.4-9.2h-1.7C216.6,0,208,12.9,213,24.4L213,24.4z"/>
<path class="st0" d="M154,24.4c7.5,17,12.2,43.5,0.8,81.1c-3.4,11.2,5,22.6,16.8,22.6h2.6c7.7,0,14.5-5,16.7-12.3
	c6.7-21.7,16.8-68.1-3.7-106.5c-3-5.7-9-9.2-15.4-9.2h-1.7C157.6,0,149,12.9,154,24.4L154,24.4z"/>
<path class="st0" d="M171.8,162.6c-3.9,8.8-6.3,22.5-0.4,41.9c1.8,5.8-2.6,11.7-8.7,11.7h-1.3c-4,0-7.5-2.6-8.6-6.4
	c-3.5-11.2-8.7-35.2,1.9-55c1.6-2.9,4.6-4.8,8-4.8h0.9C169.9,150,174.4,156.7,171.8,162.6L171.8,162.6z"/>
<path class="st0" d="M202.3,162.6c-3.9,8.8-6.3,22.5-0.4,41.9c1.8,5.8-2.6,11.7-8.7,11.7h-1.3c-4,0-7.5-2.6-8.6-6.4
	c-3.5-11.2-8.7-35.2,1.9-55c1.6-2.9,4.6-4.8,8-4.8h0.9C200.4,150,204.9,156.7,202.3,162.6L202.3,162.6z"/>
<path class="st0" d="M232.8,162.6c-3.9,8.8-6.3,22.5-0.4,41.9c1.8,5.8-2.6,11.7-8.7,11.7h-1.3c-4,0-7.5-2.6-8.6-6.4
	c-3.5-11.2-8.7-35.2,1.9-55c1.6-2.9,4.6-4.8,8-4.8h0.9C230.9,150,235.4,156.7,232.8,162.6L232.8,162.6z"/>
<path class="st0" d="M2.7,110.6c0-22-0.4-65-2.6-90.7C-0.8,9.7,7.2,1,17.4,1l0,0c9.2,0,16.8,7.1,17.4,16.2
	c1.5,21.4,3.7,64.8,2.8,93.8c-0.3,9.4-8,17-17.4,17h-0.1C10.5,128,2.7,120.2,2.7,110.6z"/>
<path class="st0" d="M145.7,60.7c-0.9-12-3.7-24.1-10.1-34.2C125.2,10.3,106,0.7,86.9,1C74.1,1.2,60.6,6.4,53.6,17.2
	c-0.2,0.3-0.3,0.6-0.5,0.8c-1.8,2.9-3.1,6-4,9.3c-4.3,16,2,34.8,14.5,45.4c12.7,10.8,30.7,12.2,46,7.2c0.5-0.2,8-2.4,8-2.4
	s-1.7,7.7-6.2,14.4c-7.4,11.1-23.6,9-32.9,7.2c-6.9-1.3-13.9-0.2-16.7,6.2c0,0.1-0.1,0.2-0.1,0.3c-2.9,6.8,0.3,14.6,7.1,17.4
	c0.5,0.2,0.9,0.3,1.1,0.4c4,1.7,36.4,11.6,58-10c5.6-5.6,10-12.5,13.1-19.5C145.6,83.8,146.5,72,145.7,60.7L145.7,60.7z M81.1,27
	c22-8.1,34.4,25.9,34.4,25.9C86.6,70.5,62,34,81.1,27z"/>
<path class="st0" d="M27.8,216.5c-7.9,0-14.3-2.1-19.2-6.2s-7.3-9.6-7.3-16.4h16.6c0,2.7,1,4.8,3,6.2c1.9,1.4,4.5,2.2,7.6,2.2
	c2.5,0,4.6-0.6,6.4-1.7c1.7-1.1,2.6-2.7,2.6-4.7c0-1-0.3-1.9-0.9-2.7c-0.6-0.8-1.5-1.4-2.8-1.9s-2.5-0.9-3.7-1.2s-2.8-0.6-4.8-0.9
	c-1.8-0.3-3.3-0.6-4.5-0.8c-1.2-0.2-2.7-0.6-4.4-1.1c-1.7-0.5-3.2-1-4.4-1.6c-1.2-0.6-2.4-1.4-3.8-2.4c-1.3-1-2.4-2.1-3.2-3.3
	s-1.4-2.7-2-4.4c-0.5-1.7-0.8-3.6-0.8-5.7c0-6,2.3-10.9,7-14.6s10.8-5.6,18.4-5.6s13.8,1.9,18.4,5.8c4.6,3.9,6.9,9,7,15.3H36.9
	c0-2.5-0.9-4.4-2.5-5.6s-4-1.9-7-1.9c-2.6,0-4.7,0.6-6.2,1.7c-1.5,1.1-2.3,2.6-2.3,4.4c0,0.7,0.1,1.3,0.4,1.9s0.7,1,1.3,1.4
	s1.2,0.7,1.8,1c0.5,0.3,1.4,0.6,2.5,0.9c1.1,0.3,2,0.5,2.8,0.6s1.8,0.3,3.2,0.6c6.1,1.1,10.6,2.2,13.3,3.4c6.8,3.1,10.2,8.4,10.2,16
	c0,6.4-2.4,11.6-7.3,15.5C42.2,214.6,35.8,216.5,27.8,216.5L27.8,216.5z"/>
<path class="st0" d="M118.4,151.3h12.8v63.3h-13.4l-1.5-5.7c-5.8,5-12.6,7.6-20.5,7.6c-6.3,0-11.9-1.4-17-4.4
	c-5.1-2.9-9-6.9-11.9-12c-2.9-5.1-4.3-10.8-4.3-17.1s1.4-11.9,4.3-17s6.8-9.1,11.9-12s10.7-4.3,17-4.3c8.1,0,15,2.6,20.8,7.7
	L118.4,151.3L118.4,151.3z M84.9,195.3c3.3,3.3,7.4,4.9,12.3,4.9s9.1-1.6,12.3-4.9s4.9-7.4,4.9-12.4s-1.6-9.1-4.9-12.4
	c-3.3-3.3-7.4-4.9-12.3-4.9s-9.1,1.6-12.3,4.9S80,178,80,183S81.6,192,84.9,195.3z"/>
<path class="st0" d="M301.8,151.3h12.8v63.3h-13.5l-1.5-5.7c-5.8,5-12.6,7.6-20.5,7.6c-6.3,0-11.9-1.4-17-4.4
	c-5.1-2.9-9-6.9-11.9-12c-2.9-5.1-4.3-10.8-4.3-17.1s1.4-11.9,4.3-17s6.8-9.1,11.9-12s10.7-4.3,17-4.3c8,0,15,2.6,20.8,7.7
	L301.8,151.3L301.8,151.3z M268.2,195.3c3.3,3.3,7.4,4.9,12.3,4.9s9.1-1.6,12.3-4.9c3.3-3.3,4.9-7.4,4.9-12.4s-1.6-9.1-4.9-12.4
	c-3.3-3.3-7.4-4.9-12.3-4.9s-9.1,1.6-12.3,4.9c-3.3,3.3-4.9,7.4-4.9,12.4S265,192,268.2,195.3z"/>
<g>
	<path class="st0" d="M381.2,111.5h3.7l-0.1,36.8H381l-0.5-6.6c-1.7,2.3-3.9,4.1-6.5,5.4s-5.5,1.9-8.7,1.9c-2.7,0-5.2-0.5-7.5-1.5
		c-2.4-1-4.4-2.3-6-4c-1.7-1.7-3-3.7-3.9-6.1c-1-2.4-1.4-4.9-1.4-7.6c0-5.5,1.8-10,5.4-13.7s8.1-5.4,13.5-5.4c3.2,0,6.1,0.7,8.7,2
		s4.8,3.1,6.5,5.5L381.2,111.5L381.2,111.5z M365.7,144.5c4.2,0,7.6-1.4,10.4-4.1c2.7-2.8,4.1-6.3,4.1-10.5s-1.4-7.7-4.1-10.5
		s-6.2-4.2-10.4-4.2c-4.2,0-7.6,1.4-10.4,4.2c-2.8,2.8-4.2,6.3-4.2,10.5c0,4.2,1.4,7.7,4.1,10.5
		C358.1,143.1,361.5,144.5,365.7,144.5L365.7,144.5z"/>
	<path class="st0" d="M427.6,98.5h4.6l-0.1,49.8h-3.6l-0.6-6.2c-1.7,2.2-3.9,3.9-6.5,5.1s-5.4,1.8-8.5,1.8c-5.5,0-10-1.8-13.5-5.5
		c-3.6-3.6-5.3-8.2-5.3-13.7c0-3.6,0.8-6.9,2.4-9.8c1.6-2.9,3.9-5.2,6.7-6.8c2.9-1.7,6.1-2.5,9.7-2.5c3,0,5.7,0.6,8.2,1.7
		c2.5,1.2,4.6,2.8,6.4,4.9L427.6,98.5L427.6,98.5z M402.9,140.4c2.7,2.8,6.2,4.2,10.4,4.2c4.2,0,7.6-1.4,10.4-4.2
		c2.8-2.8,4.1-6.3,4.1-10.5c0-4.2-1.4-7.7-4.1-10.5s-6.2-4.2-10.4-4.2c-4.2,0-7.6,1.4-10.4,4.2c-2.8,2.8-4.1,6.3-4.1,10.5
		C398.8,134.1,400.1,137.6,402.9,140.4L402.9,140.4z"/>
	<path class="st0" d="M470.9,111.6h4.7l-15.8,36.7h-4.2l-16.1-36.8h4.9l13.3,30.7L470.9,111.6L470.9,111.6z"/>
	<path class="st0" d="M516,130.1c0,0.2,0,0.4,0,0.6c0,0.2,0,0.4,0,0.6c0,0.2,0,0.4,0,0.5l-32.3-0.1c0.4,3.8,1.8,6.9,4.4,9.3
		c2.6,2.4,5.8,3.6,9.6,3.6c2.8,0,5.2-0.6,7.3-1.9c2.1-1.3,3.9-3,5.1-5.3h4.9c-1.6,3.8-3.9,6.6-7,8.7c-3,2-6.5,3-10.4,3
		c-2.6,0-5.1-0.5-7.4-1.5c-2.3-1-4.3-2.3-5.9-4c-1.6-1.7-3-3.7-3.9-6.1c-1-2.4-1.4-4.9-1.4-7.6c0-3.6,0.8-6.8,2.4-9.8
		s3.9-5.2,6.7-6.8c2.9-1.7,6-2.5,9.5-2.5c3.6,0,6.8,0.9,9.6,2.6c2.8,1.7,5,4,6.5,6.9C515.3,123.4,516,126.6,516,130.1L516,130.1z
		 M497.7,115.3c-3.7,0-6.8,1.1-9.3,3.3c-2.5,2.2-4.1,5.2-4.6,8.8l27.7,0.1c-0.5-3.7-2-6.7-4.6-8.9
		C504.4,116.4,501.3,115.3,497.7,115.3L497.7,115.3z"/>
	<path class="st0" d="M541.4,111.6h3.2v4.4H541c-3.5,0-6.2,1.1-8.3,3.3s-3,5.2-3,9l0,20.2H525l0.1-36.8h3.3l0.8,6.3
		C531.9,113.7,535.9,111.6,541.4,111.6L541.4,111.6z"/>
	<path class="st0" d="M565.7,144.3h4v4.3h-4.6c-3.8,0-6.8-1.1-8.9-3.3s-3.2-5.2-3.2-9l0-20.3h-6.3v-0.9l10.2-10.4h0.8l0,7.2l11.9,0
		v4.2l-11.9,0l0,20.1c0,2.6,0.7,4.6,2.1,6.1C561.1,143.6,563.1,144.3,565.7,144.3L565.7,144.3z"/>
	<path class="st0" d="M577.4,104.9v-5.7h5.3v5.7H577.4z M577.7,148.6l0.1-36.7h4.6l-0.1,36.8L577.7,148.6L577.7,148.6z"/>
	<path class="st0" d="M605.7,149.4c-4.3,0-7.7-1.1-10.3-3.1s-4-4.9-4.2-8.5h4.5c0.2,2.3,1.2,4.1,3,5.4s4.2,1.9,7.1,1.9
		c2.9,0,5.2-0.6,7-1.8c1.8-1.2,2.7-2.8,2.7-4.8c0-0.7-0.1-1.3-0.3-1.9c-0.2-0.6-0.5-1.1-0.8-1.5c-0.3-0.4-0.8-0.8-1.3-1.1
		c-0.6-0.3-1.1-0.6-1.6-0.8c-0.5-0.2-1.2-0.4-2-0.6c-0.8-0.2-1.5-0.4-2.1-0.5c-0.5-0.1-1.3-0.2-2.3-0.4c-1.2-0.2-2.1-0.4-2.8-0.5
		c-0.6-0.1-1.5-0.4-2.6-0.6s-1.9-0.6-2.5-0.9s-1.3-0.7-2.1-1.2c-0.8-0.5-1.3-1.1-1.8-1.7c-0.4-0.6-0.8-1.4-1-2.3
		c-0.3-0.9-0.4-1.9-0.4-3c0-3.1,1.2-5.6,3.8-7.5s5.8-2.8,9.8-2.8c4,0,7.3,1,9.8,3s3.7,4.7,3.9,8h-4.4c-0.1-2.2-1-3.9-2.6-5.1
		s-3.9-1.8-6.7-1.8c-2.8,0-4.9,0.5-6.6,1.6s-2.5,2.6-2.5,4.4c0,0.5,0.1,1,0.2,1.5c0.1,0.4,0.3,0.9,0.6,1.2s0.6,0.7,0.9,0.9
		c0.3,0.3,0.7,0.5,1.3,0.7s1,0.4,1.4,0.6s1,0.3,1.7,0.4c0.7,0.2,1.3,0.3,1.8,0.4c0.4,0.1,1.1,0.2,2,0.3c1.7,0.3,3,0.5,4,0.7
		s2.1,0.6,3.5,1.1s2.5,1.1,3.3,1.9c0.8,0.7,1.4,1.7,2,2.9c0.6,1.2,0.9,2.7,0.9,4.4c0,3.3-1.3,6-3.9,8
		C613.5,148.4,610,149.4,605.7,149.4L605.7,149.4z"/>
	<path class="st0" d="M628.9,105v-5.7h5.3v5.7H628.9z M629.2,148.7l0.1-36.7h4.6l-0.1,36.8L629.2,148.7L629.2,148.7z"/>
	<path class="st0" d="M663.8,111.2c4.3,0,7.8,1.4,10.4,4.3c2.6,2.9,3.9,6.6,3.8,11.3l0,21.9h-4.6l0-20.9c0-3.9-0.9-7-2.8-9.2
		c-1.9-2.2-4.5-3.2-8-3.2c-3.3,0-6.2,1.2-8.5,3.7s-3.5,5.5-3.5,9.1l0,20.5H646l0.1-36.8h3.3l0.9,6.5c1.4-2.3,3.2-4,5.6-5.3
		C658.2,111.8,660.9,111.2,663.8,111.2L663.8,111.2z"/>
	<path class="st0" d="M720.2,112.1h3.1l0,31.5c0,5.9-1.6,10.6-4.8,14c-3.2,3.4-7.5,5.1-13.1,5.1c-4.3,0-8-1.1-11-3.2s-5-5.1-6-8.9
		h4.7c0.9,2.5,2.4,4.4,4.6,5.8s4.8,2.1,7.7,2.1c4,0,7.3-1.3,9.7-3.8s3.6-6,3.6-10.4v-3.1c-1.7,2-3.7,3.6-6.2,4.8s-5.1,1.7-8,1.7
		c-3.3,0-6.4-0.8-9.2-2.4c-2.8-1.6-4.9-3.8-6.5-6.5c-1.6-2.8-2.3-5.8-2.3-9.2c0-3.4,0.8-6.4,2.4-9.2c1.6-2.8,3.8-5,6.5-6.6
		c2.8-1.6,5.8-2.4,9.2-2.4c3.1,0,5.9,0.7,8.5,2c2.6,1.3,4.7,3.1,6.3,5.4L720.2,112.1L720.2,112.1z M695.2,139.2
		c2.6,2.6,5.9,3.9,9.8,3.9s7.2-1.3,9.8-3.9c2.6-2.6,3.9-5.9,3.9-9.8c0-4-1.3-7.3-3.8-9.9c-2.6-2.6-5.8-3.9-9.8-3.9s-7.2,1.3-9.8,3.9
		c-2.6,2.6-3.9,5.9-3.9,9.8C691.3,133.4,692.6,136.6,695.2,139.2z"/>
	<path class="st0" d="M381.1,176.7h3.7l-0.1,36.8h-3.9l-0.5-6.6c-1.7,2.3-3.9,4.1-6.5,5.4c-2.6,1.3-5.5,1.9-8.7,1.9
		c-2.7,0-5.2-0.5-7.5-1.5c-2.4-1-4.4-2.3-6-4c-1.7-1.7-3-3.7-3.9-6.1c-1-2.4-1.4-4.9-1.4-7.6c0-5.5,1.8-10,5.4-13.7
		s8.1-5.4,13.5-5.4c3.2,0,6.1,0.7,8.7,2s4.8,3.1,6.5,5.5L381.1,176.7L381.1,176.7z M365.6,209.7c4.2,0,7.6-1.4,10.4-4.1
		s4.1-6.3,4.1-10.5c0-4.2-1.4-7.7-4.1-10.5s-6.2-4.2-10.4-4.2c-4.2,0-7.6,1.4-10.4,4.2c-2.8,2.8-4.2,6.3-4.2,10.5s1.4,7.7,4.1,10.5
		S361.4,209.7,365.6,209.7L365.6,209.7z"/>
	<path class="st0" d="M427.6,176.8h3.1l0,31.5c0,5.9-1.6,10.6-4.8,14c-3.2,3.4-7.5,5.1-13.1,5.1c-4.3,0-8-1.1-11-3.2s-5-5.1-6-8.9
		h4.6c0.9,2.5,2.4,4.4,4.6,5.8s4.8,2.1,7.7,2.1c4,0,7.3-1.3,9.7-3.8s3.6-6,3.6-10.4v-3.1c-1.7,2-3.7,3.6-6.1,4.8s-5.1,1.7-8,1.7
		c-3.3,0-6.4-0.8-9.2-2.4c-2.8-1.6-4.9-3.8-6.5-6.5c-1.6-2.8-2.4-5.8-2.3-9.2s0.8-6.4,2.4-9.2c1.6-2.8,3.8-5,6.5-6.6
		c2.8-1.6,5.8-2.4,9.2-2.4c3.1,0,5.9,0.7,8.5,2s4.7,3.1,6.3,5.4L427.6,176.8L427.6,176.8z M402.6,203.9c2.6,2.6,5.9,3.9,9.8,3.9
		c3.9,0,7.2-1.3,9.8-3.9c2.6-2.6,3.9-5.9,3.9-9.8c0-4-1.3-7.2-3.9-9.9c-2.6-2.6-5.8-3.9-9.8-3.9s-7.2,1.3-9.8,3.9s-3.9,5.9-3.9,9.8
		S400,201.3,402.6,203.9z"/>
	<path class="st0" d="M476.9,195.3c0,0.2,0,0.4,0,0.6c0,0.2,0,0.4,0,0.6c0,0.2,0,0.4,0,0.5l-32.3-0.1c0.4,3.8,1.8,6.9,4.4,9.3
		c2.6,2.4,5.8,3.6,9.6,3.6c2.8,0,5.2-0.6,7.4-1.9c2.1-1.3,3.9-3,5.1-5.3h4.9c-1.6,3.8-3.9,6.6-7,8.7c-3,2-6.5,3-10.4,3
		c-2.6,0-5.1-0.5-7.4-1.5c-2.3-1-4.3-2.3-5.9-4c-1.6-1.7-3-3.7-3.9-6.1c-1-2.4-1.4-4.9-1.4-7.6c0-3.6,0.8-6.8,2.4-9.8
		s3.9-5.2,6.7-6.9c2.9-1.7,6-2.5,9.5-2.5c3.6,0,6.8,0.9,9.6,2.6c2.8,1.7,5,4,6.5,6.9S476.9,191.7,476.9,195.3L476.9,195.3z
		 M458.5,180.4c-3.7,0-6.8,1.1-9.3,3.3s-4.1,5.2-4.6,8.8l27.7,0.1c-0.5-3.7-2-6.7-4.6-8.9C465.2,181.6,462.1,180.5,458.5,180.4
		L458.5,180.4z"/>
	<path class="st0" d="M503.8,176.1c4.3,0,7.8,1.4,10.4,4.3c2.6,2.9,3.9,6.6,3.8,11.3l0,21.9h-4.6l0-20.9c0-3.9-0.9-7-2.8-9.2
		c-1.9-2.2-4.5-3.2-8-3.2c-3.3,0-6.2,1.2-8.5,3.7c-2.3,2.5-3.5,5.5-3.5,9l0,20.5h-4.6l0.1-36.8h3.3l0.9,6.5c1.4-2.3,3.2-4,5.6-5.3
		S500.8,176.1,503.8,176.1L503.8,176.1z"/>
	<path class="st0" d="M545.5,214.5c-2.7,0-5.2-0.5-7.5-1.5c-2.3-1-4.4-2.3-6-4c-1.7-1.7-3-3.7-4-6.1c-1-2.4-1.5-4.9-1.5-7.6
		c0-2.7,0.5-5.2,1.5-7.6c1-2.4,2.3-4.4,4-6.1c1.7-1.7,3.7-3,6-4c2.4-1,4.9-1.4,7.5-1.4c4.2,0,8,1.2,11.1,3.5
		c3.2,2.3,5.3,5.4,6.5,9.2h-4.6c-1.2-2.6-2.9-4.6-5.2-6s-4.9-2.2-7.8-2.2c-4.1,0-7.5,1.4-10.2,4.2c-2.7,2.8-4.1,6.3-4.1,10.4
		s1.3,7.6,4.1,10.4c2.7,2.8,6.1,4.2,10.2,4.2c2.9,0,5.5-0.7,7.8-2.2c2.3-1.5,4-3.5,5.2-6.1h4.7c-1.2,3.9-3.4,7-6.6,9.4
		C553.4,213.3,549.7,214.5,545.5,214.5L545.5,214.5z"/>
	<path class="st0" d="M598.4,177.1h5l-18,38.8c-1.9,4.2-3.9,7-5.9,8.6s-4.7,2.4-8,2.4h-3.2v-4.2h2.9c2.5,0,4.4-0.5,5.7-1.5
		c1.3-1,2.8-3.1,4.3-6.3l1.6-3.4L566.2,177h5l13.9,29.3L598.4,177.1z"/>
</g>
</svg>
